<svg width="72" height="72" viewBox="0 0 72 72" fill="none" xmlns="http://www.w3.org/2000/svg">
<g id="noto-v1:pot-of-food">
<path id="Vector" d="M9.17438 36.6356C12.2119 26.3419 24.6769 22.185 34.2956 22.1512C43.4025 22.1175 54.27 24.8512 60.3169 32.2256C61.6725 33.8737 62.6231 35.8087 62.9831 37.9012C63.7256 42.1594 61.5094 46.5525 58.1175 49.1569C55.03 51.5372 51.4496 53.1976 47.6381 54.0169C45.5456 54.4669 43.3744 54.7875 41.2313 54.9619C38.4694 55.1812 35.6288 55.1475 32.8669 54.945C30.4706 54.7706 28.0463 54.4556 25.695 53.9944C21.3244 53.1281 16.5938 51.84 13.1006 48.9994C11.4919 47.6887 10.2319 45.7537 9.57375 43.8131C8.87625 41.7881 8.56125 38.7169 9.17438 36.6356Z" fill="#855C52"/>
<path id="Vector_2" d="M71.8425 41.6756C71.8819 39.5888 71.4825 37.4456 70.47 35.5781C69.7669 34.2731 68.7375 33.1088 67.3819 32.3494C66.69 31.9613 65.9306 31.6913 65.1375 31.5338C64.2487 31.3594 63.4106 31.3538 62.6512 30.9713C61.9762 30.6338 61.4925 29.8744 60.9919 29.3175C60.435 28.71 59.85 28.1306 59.2369 27.585C58.0066 26.4849 56.6793 25.4983 55.2712 24.6375C52.0369 22.6463 48.4312 21.2794 44.7244 20.5538C37.9012 19.2206 30.3806 18.9338 23.7094 21.1388C19.6987 22.4663 15.75 24.3619 12.5606 27.2081C11.8688 27.8221 11.2326 28.4959 10.6594 29.2219C10.1644 29.8519 9.70311 30.4256 9.01123 30.8644C8.80311 30.9938 8.62311 31.1063 8.38123 31.1513C7.28998 31.3481 6.18186 31.5394 5.15248 31.9556C2.27811 33.1088 0.697484 37.0631 0.320609 39.8813C0.0337337 42.0188 -0.0112663 44.3531 1.24311 46.1925C2.69998 48.3244 5.45623 48.195 7.01998 50.0738C8.30811 51.6206 8.57248 53.91 9.55686 55.6538C11.0137 58.2356 13.0894 60.4181 15.48 62.1563C20.16 65.5481 25.9706 67.32 31.6969 67.7869C34.9369 68.0513 38.4356 67.9669 41.6531 67.5113C47.79 66.6394 53.7581 63.7706 58.0444 59.265C59.4731 57.7575 60.7106 56.0644 61.6781 54.225C62.1731 53.28 62.595 52.29 62.9437 51.2831C63.5737 49.4438 64.7325 49.23 66.4537 48.7913C67.185 48.6056 67.8881 48.3356 68.535 47.9644C69.8006 47.2331 70.7344 46.1363 71.2519 44.8425C71.6569 43.8356 71.82 42.75 71.8425 41.6756ZM9.17436 36.6356C12.2119 26.3419 24.6769 22.185 34.2956 22.1513C43.4025 22.1175 54.27 24.8513 60.3169 32.2256C61.6725 33.8738 62.6231 35.8088 62.9831 37.9013C63.7256 42.1594 61.5094 46.5525 58.1175 49.1569C55.03 51.5372 51.4496 53.1977 47.6381 54.0169C45.5456 54.4669 43.3744 54.7875 41.2312 54.9619C38.4694 55.1813 35.6287 55.1475 32.8669 54.945C30.4706 54.7706 28.0462 54.4556 25.695 53.9944C21.3244 53.1281 16.5937 51.84 13.1006 48.9994C11.4919 47.6888 10.2319 45.7538 9.57373 43.8131C8.87623 41.7881 8.56123 38.7169 9.17436 36.6356Z" fill="#B89278"/>
<g id="Clip path group">
<mask id="mask0_1_13" style="mask-type:luminance" maskUnits="userSpaceOnUse" x="6" y="20" width="58" height="36">
<g id="notoV1PotOfFood1">
<path id="Vector_3" d="M6.35064 28.8675C9.38251 18.5681 24.8794 20.61 34.5038 20.5763C43.6106 20.5425 55.035 22.9219 61.0819 30.2962C62.4319 31.9444 62.6175 35.8087 62.9831 37.9012C63.7256 42.1594 61.5094 46.5525 58.1175 49.1569C55.03 51.5372 51.4497 53.1976 47.6381 54.0169C45.5456 54.4669 43.3744 54.7875 41.2313 54.9619C38.4694 55.1812 35.6288 55.1475 32.8669 54.945C30.4706 54.7706 28.0463 54.4556 25.695 53.9944C21.3244 53.1281 16.5938 51.84 13.1006 48.9994C11.4919 47.6887 10.2319 45.7537 9.57376 43.8131C8.87626 41.7881 5.74314 30.9431 6.35064 28.8675Z" fill="white"/>
</g>
</mask>
<g mask="url(#mask0_1_13)">
<g id="Group">
<path id="Vector_4" d="M25.5319 30.8306C25.4362 30.0881 26.1281 29.1263 26.4937 28.5075C26.9775 27.6975 27.5794 26.6288 28.2544 25.9594C28.8112 25.4025 30.3356 24.9694 31.1062 25.11C31.5675 25.1888 32.1525 25.5319 32.5687 25.7231C33.3169 26.055 34.1606 26.46 34.8637 26.865C35.4881 27.225 36.6019 28.2263 37.4231 27.9225C37.9631 27.72 38.5537 27.1069 39.0994 26.8313C39.9487 26.4038 40.8262 26.0269 41.6587 25.5769C42.1706 25.3013 42.9244 24.6769 43.5375 24.6825C44.4262 24.6881 45.2025 25.4306 45.855 25.9425C46.3219 26.3081 46.8169 26.5613 47.2556 26.9775C47.6831 27.3881 47.9812 27.8606 48.3637 28.305C48.735 28.7381 49.8206 29.6494 49.8375 30.2681C49.8487 30.8756 47.9981 31.635 47.5087 31.8375C46.7381 32.1581 45.9 32.2819 45.1069 32.5519C44.4544 32.7769 43.5431 32.7994 42.9581 33.1538C42.0356 33.7106 41.8669 35.4769 41.5744 36.4106C41.4 36.9731 41.2594 37.3612 41.2537 37.98C41.2425 38.7787 40.5281 39.2456 39.87 39.6956C38.9925 40.2975 38.0869 40.6912 37.1419 41.1581C36.2756 41.5856 35.7581 41.6981 34.7794 41.6981C33.8569 41.7038 33.7725 41.5069 33.4969 40.6013C33.1256 39.3863 32.9456 38.1825 32.4225 37.0125C32.1469 36.3994 31.815 35.8425 31.5731 35.235C31.3875 34.7738 31.2975 34.1944 30.8925 33.8569C30.3806 33.4125 29.6662 33.0638 29.0981 32.6644C28.6875 32.3831 28.3275 31.9444 27.8156 31.8375L25.5319 30.8306Z" fill="white"/>
<path id="Vector_5" d="M11.0306 39.1219C10.9575 38.8069 10.8956 38.475 10.7775 38.1938C10.3669 37.2206 10.4738 36.1463 10.17 35.1675C9.79875 33.9469 9.225 32.85 9.2025 31.5338C9.18 30.1275 9.42188 29.2275 10.53 28.3163C11.1994 27.765 11.8013 27.2363 12.7069 27.2644C14.6869 27.3263 16.02 28.8225 17.64 29.7281C18.3375 30.1219 19.2206 29.9644 19.9688 30.2231C21.1894 30.645 21.7181 31.6913 21.6338 32.9175C21.5438 34.1213 21.4031 35.4094 21.42 36.6019C21.4369 37.3331 21.7519 38.6213 20.9644 39.0938C20.5538 39.3413 19.8675 39.33 19.395 39.2738C17.865 39.0881 16.6556 38.0194 15.2269 37.5581C13.8263 37.1025 13.0444 38.2669 12.3469 39.2513C12.1388 39.5438 11.61 40.4044 11.2556 39.7631C11.1488 39.5719 11.0813 39.3525 11.0306 39.1219Z" fill="#ED6C30"/>
<path id="Vector_6" d="M9.95627 43.5488C9.94502 45.495 10.9744 46.755 11.8125 48.4031C12.7519 50.2481 13.8206 51.6544 15.7838 52.56C16.8919 53.0719 18.3938 53.1956 19.5638 52.8525C21.3863 52.3069 22.3313 50.8725 22.9669 49.1513C23.6363 47.3513 23.5688 45.36 23.1581 43.5038C23.0175 42.8513 23.2425 42.12 23.04 41.5238C22.7925 40.7981 21.915 40.3256 21.24 40.0838C20.5144 39.825 19.5863 39.9938 18.81 39.9769C17.8481 39.96 17.0494 39.0825 16.38 38.4075C15.9525 37.98 15.5813 37.5188 14.9625 37.4006C13.9556 37.2094 12.5044 37.2994 11.7056 38.0081C10.1306 39.4088 9.96752 41.5913 9.95627 43.5488Z" fill="#ED6C30"/>
<path id="Vector_7" d="M20.6718 38.1206C20.6606 40.0669 21.69 41.3269 22.5281 42.975C23.4675 44.82 24.5362 46.2263 26.4993 47.1319C27.6075 47.6438 29.1037 47.7731 30.285 47.4244C32.1075 46.8788 33.0525 45.4444 33.6881 43.7231C34.2168 42.2944 34.2337 40.1569 33.6431 38.7281C33.2437 37.7606 32.6362 36.765 31.9668 35.9775C31.2975 35.1844 30.4706 34.4925 29.6775 33.84C29.2612 33.5025 28.9293 33.21 28.4343 32.9794C27.945 32.7488 27.3825 32.7881 26.8875 32.5913C26.46 32.4225 26.1618 32.0569 25.6893 31.9669C24.6825 31.7756 23.2312 31.8656 22.4325 32.5744C20.8462 33.9806 20.6887 36.1575 20.6718 38.1206Z" fill="#ED6C30"/>
<path id="Vector_8" d="M49.8769 27.9956C49.635 27.7706 49.41 27.5738 49.2637 27.4106C47.8687 25.8188 46.5525 24.5138 44.73 23.3888C43.1156 22.3875 41.5575 23.3775 40.1456 24.2269C39.1894 24.795 37.8169 25.6613 36.7312 26.6681C36.6469 26.6344 36.5625 26.6006 36.4612 26.5781C36.2137 26.5219 35.4769 25.8919 35.3137 25.785C34.5544 25.2563 33.7556 24.8006 32.9119 24.4294C31.3425 23.7488 30.375 23.5125 28.8394 24.3844C27.2587 25.2844 26.0887 26.8594 24.8962 28.1981C24.5587 28.5806 24.2606 29.0306 24.1144 29.5313C23.9512 30.0713 23.7994 30.7856 23.0962 30.5606C22.4719 30.3638 22.1344 29.8519 21.6337 29.475C20.9306 28.9519 19.98 28.6088 19.1025 28.5581C17.505 28.4625 16.9144 27.3431 15.5812 26.7975C14.3325 26.28 13.1287 26.2181 11.79 26.3194C9.55687 26.4938 7.43624 28.395 7.42499 30.7125C7.41937 32.0119 7.39124 33.3338 7.94812 34.5431C8.17874 35.0494 8.36999 35.1731 8.42062 35.7356C8.45999 36.1856 8.60624 36.5738 8.67937 37.0181C8.79749 37.7269 8.86499 38.6269 8.63437 39.3188C8.40937 39.9938 8.33624 40.6013 8.18437 41.31C8.07749 41.8444 8.02687 42.1369 8.14499 42.705C8.27437 43.3519 8.42624 43.9819 8.60062 44.6175C8.85374 45.5175 9.16312 46.395 9.46687 47.2781C9.73124 48.0488 9.91124 48.4481 10.4287 49.0894C11.1712 50.0006 12.0712 50.7713 12.6731 51.7781C13.2075 52.6838 14.2256 53.2913 15.2944 53.3138C15.8681 53.325 17.01 53.3419 17.1562 52.5994C17.2856 51.9525 16.4081 51.84 16.0087 51.57C14.625 50.6194 13.4212 49.8656 12.5719 48.3638C11.8237 47.0419 11.4525 45.5513 11.115 44.0831C10.8337 42.8625 10.8 41.5631 11.1881 40.3594C11.5875 39.1219 12.6056 38.5031 13.905 38.4188C14.7656 38.3625 15.9637 39.9263 16.7737 40.3706C18.1912 41.1413 19.5862 39.9263 21.06 41.0963C22.3369 42.1088 22.0275 44.1731 22.7306 45.5063C23.5912 47.1263 26.0494 45.6919 25.1887 44.0663C24.7444 43.2338 24.7894 42.0919 24.4012 41.1975C23.9287 40.1119 23.31 39.2906 22.4325 38.6494C22.4269 38.5819 22.4381 38.52 22.4212 38.4469C21.9319 36.6638 22.3031 33.6094 24.6206 33.4238C25.8019 33.3281 26.4037 33.5644 27.3375 34.2956C28.1531 34.9313 29.1881 35.1113 29.8856 35.9044C29.9925 36.0225 30.105 36.1125 30.2231 36.1856C30.3412 36.585 30.5156 37.0069 30.7462 37.4569C31.1062 38.1656 31.3369 38.9644 31.7531 39.645C31.8937 39.8756 32.1131 40.0444 32.2537 40.275C32.4506 40.6069 32.4956 41.0063 32.6925 41.3438C32.8669 41.6419 33.0244 42.1538 33.3956 42.1763C33.6937 42.1988 34.1156 42.03 34.3912 41.9063C34.7175 41.76 35.1 41.6588 35.3869 41.4619C36.3094 40.8206 33.7219 36.7256 33.3619 35.9269C32.9906 35.1 33.2775 35.0888 33.9975 34.5825C35.0269 33.8513 36.3937 32.7038 37.7437 32.7938C38.52 32.85 39.1669 33.2831 39.6394 33.8569C40.0725 34.3688 40.6406 35.6794 41.4619 34.9819C41.805 34.6894 42.0862 34.3125 42.3956 33.9919C42.5194 33.8681 42.6319 33.7219 42.705 33.5644C43.2731 32.3831 41.715 31.365 40.8994 30.8306C40.4494 30.5381 40.0837 30.1556 39.5775 29.9306C39.3469 29.8294 38.4019 29.7788 38.2781 29.6325C37.7887 29.0531 40.2975 27.5794 40.6237 27.3488C41.4281 26.775 42.8737 25.3744 43.8806 26.1169C45.8719 27.5794 47.1937 29.52 48.9712 31.1625C49.4831 31.635 50.3325 31.0219 50.7769 30.6956C51.9075 29.8575 50.7544 28.7831 49.8769 27.9956ZM20.2725 38.3231C19.2712 38.2838 18.2587 38.2556 17.7581 37.7663C16.4869 36.5288 15.5869 36.0225 13.7756 35.8313C12.9262 35.7413 12.0994 35.9269 11.3344 36.2531C11.1431 35.6738 10.8675 35.1169 10.5694 34.5319C10.0237 33.4688 9.76499 32.3719 9.74249 31.185C9.68624 28.395 12.1387 28.305 14.04 28.7325C15.5812 29.0756 16.1662 30.9375 17.955 31.05C19.0294 31.1231 20.3456 31.0613 21.0825 32.0794C21.2119 32.265 21.2794 32.4506 21.33 32.6419C20.2444 34.2506 19.935 36.3656 20.2725 38.3231ZM31.8094 33.0019C31.6687 33.1256 31.5562 33.2494 31.4325 33.3731C30.2344 32.4563 28.7494 31.7475 27.5569 30.9319C27.2644 30.735 26.7637 30.69 26.6569 30.3244C26.5612 30.0094 26.8256 29.5988 26.955 29.3175C27.27 28.6031 28.0687 27.9113 28.62 27.3713C29.3681 26.6456 30.2344 25.1494 31.4494 25.8638C32.6194 26.5556 33.7387 27.3094 34.8975 28.0181C35.4094 28.3275 36.2587 28.8788 36.3262 29.4919C36.3769 29.9588 36.6581 30.1219 36.1519 30.3075C34.5825 30.8813 33.0694 31.905 31.8094 33.0019Z" fill="#FCC21B"/>
<path id="Vector_9" d="M48.0262 27.9563C47.7169 28.0238 47.4187 28.0856 47.1262 28.1419C46.6256 28.2431 46.2037 28.4288 45.7256 28.5975C44.6512 28.9856 43.8075 29.3738 42.9919 30.195C42.3956 30.8025 42.0581 31.4944 41.5912 32.1806C41.3437 32.5463 41.2537 32.9625 41.1019 33.3675C40.9275 33.8175 40.6744 34.1719 40.5394 34.6444C40.3369 35.3531 40.1906 36.0338 40.1344 36.7763C40.0669 37.5919 40.3594 38.3456 40.4944 39.15C40.5562 39.5381 40.6631 39.8644 40.8262 40.2188C41.0231 40.6519 41.0231 41.1131 41.2031 41.5463C41.535 42.3281 42.0975 43.0088 42.6431 43.6444C43.2056 44.3025 43.8525 44.8481 44.5219 45.3881C45.6075 46.2656 46.89 46.5356 48.2512 46.7438C49.6406 46.9631 50.9906 46.6819 52.3856 46.6481C53.4994 46.62 54.5344 46.4288 55.6031 46.1194C56.3512 45.9056 57.1837 45.6806 57.8137 45.225C58.5844 44.6681 58.9275 43.8919 59.3775 43.0763C59.8219 42.2606 60.0075 41.3269 60.2719 40.4438C60.5081 39.6169 60.6825 38.7619 60.6712 37.8956C60.6319 35.6344 60.5419 33.1819 58.9612 31.3988C57.1669 29.3738 53.9269 27.8381 51.2494 27.5906C50.2256 27.5006 49.0894 27.7313 48.0262 27.9563Z" fill="#855C52"/>
<path id="Vector_10" d="M47.0137 39.7238V39.69C47.0587 39.1162 46.9969 38.52 47.1881 37.9687C47.3737 37.4512 47.6156 36.9506 47.7056 36.3994C47.8012 35.8425 47.3794 35.3081 46.9744 34.9819C46.4287 34.5375 45.7031 34.3744 45.1744 33.9075C44.8931 33.66 44.5331 33.4294 44.8819 33.0975C45.2981 32.6981 46.17 32.8275 46.7044 32.8781C47.1881 32.9231 47.7225 33.0244 48.1894 33.1481C48.4594 33.2212 48.7237 33.4069 49.0162 33.3337C49.4212 33.2212 49.7194 32.7375 49.9894 32.4394C50.31 32.085 50.6475 31.7475 51.0412 31.4719C51.4012 31.2187 52.3237 30.5381 52.8187 30.7519C53.5837 31.0837 52.5375 32.3775 52.3912 32.8725C52.2337 33.4012 51.5869 34.4025 52.1269 34.8637C52.38 35.0775 52.6556 35.2687 52.9537 35.415C53.19 35.5331 53.3981 35.5894 53.595 35.7637C54.0562 36.1687 54.5906 36.4781 55.0069 36.9338C55.26 37.215 56.2444 37.9181 55.8956 38.3625C55.5412 38.8125 54.2587 38.1994 53.8369 38.0419C52.9931 37.7381 52.11 37.0069 51.1594 37.2319C50.7094 37.3387 50.355 37.665 50.1356 38.07C49.9275 38.4694 49.7869 38.745 49.4944 39.105C49.2806 39.3694 49.1006 39.6619 48.9319 39.9544C48.7181 40.2975 48.6112 40.6912 48.42 41.0344C48.2456 41.3494 47.7787 41.8331 47.3681 41.5237C47.0419 41.2762 46.9912 40.1175 47.0137 39.7238Z" fill="white"/>
<path id="Vector_11" d="M51.8569 47.88C49.7756 47.88 47.4806 47.3456 44.6513 46.1925C44.2688 46.035 43.9031 45.8269 43.5263 45.5513C43.1325 45.2588 42.7894 44.9438 42.4519 44.6288L42.1988 44.3981C41.1019 43.4025 40.3144 42.4069 39.8588 41.4394C39.4256 40.5281 39.1388 39.7069 39.015 38.9869C38.8125 37.845 39.0544 36.4613 39.2231 35.4544C39.4369 34.2169 39.8363 33.0413 40.4044 31.9444C40.8319 31.1175 41.3156 30.2513 42.0413 29.52C42.9975 28.5581 44.2181 28.0181 45.2925 27.54C46.5525 26.9831 47.9531 26.6006 49.3425 26.415C53.4206 25.8806 57.9656 28.2038 60.1706 31.8994C60.5813 32.58 60.9919 33.3169 61.2281 34.1494C61.6275 35.5781 61.9875 36.8438 61.7175 38.4919C61.5038 39.7969 61.2281 40.7813 60.8175 41.6813L60.705 41.9456C60.4238 42.5644 60.0806 43.335 59.6588 43.9088C57.6844 46.5413 55.0575 47.88 51.8569 47.88ZM50.58 28.62C50.2706 28.62 49.95 28.6369 49.6406 28.6819C48.4819 28.8338 47.2669 29.1656 46.3163 29.5819C45.2363 30.06 44.3138 30.465 43.6613 31.1231C43.1663 31.635 42.795 32.2988 42.4294 32.9963C41.9625 33.8794 41.6475 34.83 41.4731 35.8256C41.3269 36.6806 41.13 37.8338 41.2594 38.5875C41.3494 39.0994 41.5688 39.7238 41.9175 40.4438C42.2438 41.13 42.8738 41.9063 43.7344 42.6881L44.0044 42.9356C44.2913 43.2 44.5725 43.4644 44.8819 43.6894C45.1069 43.8525 45.315 43.9763 45.5231 44.0606C48.0319 45.0844 50.1075 45.5794 51.8625 45.5794C54.3375 45.5794 56.2838 44.5838 57.825 42.525C58.095 42.1594 58.3819 41.5181 58.6069 41.0063L58.7306 40.7363C59.0513 40.0275 59.2763 39.2119 59.4563 38.1094C59.6419 36.9675 59.3944 36.0788 59.0513 34.8525C58.8713 34.1944 58.545 33.6319 58.2075 33.0638C56.6156 30.4088 53.55 28.62 50.58 28.62Z" fill="#FCC21B"/>
<path id="Vector_12" d="M19.3387 52.2506C19.3725 49.5113 20.565 46.0406 23.0681 44.5838C23.7319 44.1956 24.3394 43.8019 25.0706 43.5544C26.2406 43.155 27.5006 43.1606 28.6931 42.8625C29.7844 42.5869 30.4256 42.0469 31.2694 41.3381C31.8544 40.8488 32.5406 40.4213 33.2044 40.05C34.2956 39.4481 35.6006 39.1781 36.8437 39.1781C38.6887 39.1781 40.7137 39.5775 42.2381 40.6631C42.9356 41.1581 43.515 41.8894 43.9931 42.57C44.4656 43.2619 44.4037 44.1338 44.46 44.9325C44.5556 46.1588 44.4431 47.3344 44.1337 48.51C43.8075 49.7475 43.5825 51.0075 43.2112 52.2281C42.9919 52.9538 42.7781 53.7188 42.3675 54.3656C41.9681 54.9956 41.4169 54.8719 40.7194 55.0069C40.1569 55.1138 39.5944 55.215 39.0319 55.2994C37.9519 55.4625 36.8662 55.4006 35.775 55.4006C34.7006 55.4063 33.6712 55.26 32.6025 55.1475C31.6294 55.0463 30.6112 55.2206 29.6269 55.1531C28.305 55.0688 26.8481 54.9675 25.5937 54.54C24.8287 54.2869 24.0975 54.0394 23.3212 53.8706C22.7587 53.7469 21.8419 53.6625 21.4144 53.2519C20.7225 52.92 20.0419 52.5488 19.3387 52.2506Z" fill="#757F3F"/>
<path id="Vector_13" d="M37.845 60.1369C37.5187 60.1369 37.1981 60.1313 36.8775 60.12C36.3993 60.1088 35.9437 60.075 35.4881 60.0469C33.8962 59.9344 32.2425 60.0188 30.4425 59.8219C26.9043 59.4338 23.2087 58.8938 20.3737 56.9081C19.5075 56.3063 18.6412 55.6144 18.3206 54.405C18.135 53.7244 18.0562 52.9875 18.0843 52.2056C18.1237 51.0469 18.3825 49.8206 18.9 48.3413C19.4287 46.8225 20.4862 44.7694 22.5056 43.5938L22.8206 43.4081C23.3943 43.0706 23.9906 42.7163 24.7162 42.4688C25.4868 42.2044 26.2406 42.1031 26.9775 42.0019C27.4837 41.9288 27.9675 41.8613 28.4175 41.7488C29.25 41.5406 29.7281 41.1413 30.5156 40.4831C31.1118 39.9825 31.8037 39.5213 32.6531 39.0488C33.8512 38.385 35.3081 38.0306 36.8493 38.0306C39.2175 38.0306 41.3662 38.6325 42.9075 39.7238C43.8075 40.3594 44.4993 41.2819 44.9381 41.9175C45.5118 42.7444 45.5512 43.6669 45.5906 44.4094C45.5962 44.5556 45.6018 44.6963 45.6131 44.8425C45.7143 46.1813 45.6018 47.4806 45.2531 48.7969C45.1125 49.2863 45 49.7813 44.8875 50.2706C44.7131 51.0188 44.5387 51.795 44.3081 52.56C44.1506 53.0775 44.0662 53.6288 43.9762 54.2081C43.8356 55.1081 43.6893 56.0475 43.2562 57.015L43.0931 57.3919C42.7556 58.2019 42.3675 59.1131 41.0287 59.6419C39.9206 60.075 38.745 60.1369 37.845 60.1369ZM36.8437 40.32C35.7018 40.32 34.6106 40.5788 33.7556 41.0513C33.03 41.4506 32.4562 41.8331 32.0006 42.2156C31.0781 42.9863 30.3075 43.6331 28.9743 43.9706C28.4006 44.1113 27.8325 44.1956 27.2812 44.2688C26.6287 44.3588 26.0043 44.4431 25.4418 44.6344C24.9412 44.8031 24.4968 45.0731 23.9793 45.3825L23.6475 45.5738C22.23 46.4006 21.4537 47.9475 21.0543 49.1006C20.6156 50.355 20.3962 51.3675 20.3681 52.29C20.3456 52.8413 20.4018 53.3588 20.5312 53.82C20.6493 54.2813 21.1275 54.6469 21.6843 55.035C24.0806 56.7113 27.45 57.195 30.69 57.5494C32.4225 57.735 34.065 57.6563 35.6456 57.7631C36.3794 57.8168 37.1148 57.8449 37.8506 57.8475C38.5931 57.8475 39.4537 57.8081 40.1906 57.5213C40.6181 57.3525 40.6968 57.2006 40.9837 56.5144C41.0343 56.3794 41.1018 56.2331 41.1637 56.0869C41.4731 55.4006 41.5856 54.6525 41.715 53.865C41.8106 53.2294 41.9118 52.5769 42.12 51.9019C42.3281 51.21 42.4912 50.5069 42.66 49.77C42.7781 49.2525 42.8962 48.7406 43.0312 48.2231C43.3125 47.1544 43.4081 46.1081 43.3237 45.0225C43.3125 44.8594 43.3012 44.6906 43.2956 44.5219C43.2731 43.9819 43.2506 43.5094 43.0537 43.2225C42.7106 42.7331 42.1875 42.0244 41.5856 41.5913C40.4212 40.77 38.7393 40.32 36.8437 40.32Z" fill="#FCC21B"/>
<path id="Vector_14" d="M27.4556 55.8281C27.3656 55.3613 27.7256 54.8606 27.8831 54.4331C28.1419 53.73 28.4119 53.0213 28.7719 52.3631C29.3906 51.2269 29.925 50.1356 30.7744 49.1456C31.5225 48.2794 33.0413 46.3219 34.4306 46.7044C34.4475 46.9688 34.6163 47.3006 34.6106 47.5425C34.5938 47.9306 34.335 48.3469 34.1663 48.69C33.7444 49.5844 33.0806 50.4169 32.5969 51.2888C32.0513 52.2788 31.6181 53.3363 31.1625 54.3656C30.78 55.2319 30.3131 55.89 30.3075 56.8519V56.8294" fill="#FCC21B"/>
<path id="Vector_15" d="M35.235 55.7775C35.325 55.5694 35.415 55.3556 35.4881 55.1475C35.8763 54.045 36.1069 52.92 36.6188 51.8512C37.5806 49.815 39.0994 47.9925 41.1806 47.0531C41.8725 46.7437 42.6319 46.5019 43.3575 46.2656C44.055 46.0406 44.955 45.8662 45.4838 45.3375C46.4288 44.3869 47.1713 43.5825 48.5213 43.2337C50.2875 42.7837 52.7625 42.7781 54.495 43.4081C55.4231 43.7456 56.2331 44.3306 56.9756 44.9775C57.6675 45.585 58.1906 46.4231 58.7081 47.1994C59.3944 48.2288 59.535 49.4775 59.5069 50.6812C59.49 51.7894 59.7431 53.2125 58.9275 54.1237C58.6575 54.4162 58.2244 54.5625 57.8925 54.7931C57.4031 55.1306 56.9756 55.5131 56.4638 55.8337C54.8325 56.8519 52.7175 57.2512 50.9006 57.8362C46.6088 59.2087 42.0188 59.2537 37.5638 59.265C36.7875 59.2706 34.9875 59.2987 34.74 58.41C34.4756 57.4312 34.875 56.61 35.235 55.7775Z" fill="#757F3F"/>
<path id="Vector_16" d="M41.4562 58.3988C41.5125 57.3863 42.2437 56.3175 42.6094 55.4006C42.9806 54.4725 43.4194 53.4263 43.965 52.5938C44.5781 51.6656 45.4894 50.9569 46.3275 50.2538C46.845 49.815 47.4019 49.2469 48.1781 49.3931C48.9937 49.5506 49.0556 50.2819 48.7519 50.9681C48.4819 51.5813 47.9981 52.2225 47.6437 52.7906C47.115 53.64 46.7156 54.4781 46.3387 55.3838C45.9169 56.3906 45.0619 57.2456 45.1744 58.4325V58.3988" fill="#FCC21B"/>
<path id="Vector_17" d="M37.3331 60.4013C36.3656 60.4013 34.0987 60.4013 33.6318 58.7025C33.2775 57.4031 33.75 56.3288 34.1212 55.4625L34.1887 55.3219C34.2675 55.1363 34.3406 54.9563 34.4081 54.765C34.5431 54.3881 34.6556 54.0056 34.7681 53.6288C34.9875 52.8863 35.2181 52.1213 35.5781 51.3563C36.4162 49.59 37.9912 47.2331 40.7081 46.0069C41.4337 45.6806 42.1875 45.4388 42.9131 45.2025C43.1381 45.1294 43.29 45.0844 43.4475 45.0394C43.8918 44.91 44.4543 44.7469 44.6681 44.5275L44.8368 44.3531C45.7706 43.4138 46.6593 42.525 48.2287 42.1256C49.14 41.895 50.1862 41.7713 51.2606 41.7713C52.2 41.7713 53.595 41.8669 54.8775 42.3338C55.8112 42.6713 56.7168 43.2394 57.7181 44.1169C58.4493 44.7525 58.9893 45.5738 59.4731 46.2938L59.6475 46.5581C60.5812 47.9475 60.6656 49.5844 60.6431 50.6981C60.6431 50.9063 60.6487 51.12 60.6543 51.3394C60.6881 52.4419 60.7275 53.82 59.7712 54.8831C59.4675 55.2206 59.1075 55.4063 58.8206 55.5581C58.725 55.6088 58.6237 55.6594 58.5393 55.7213C58.3537 55.8506 58.1737 55.9856 57.9993 56.1206C57.6956 56.3513 57.3918 56.5819 57.06 56.79C55.7156 57.6281 54.1631 58.0669 52.6612 58.4944C52.1718 58.6294 51.6993 58.7644 51.2381 58.9106C46.6762 60.3731 41.8331 60.3844 37.5581 60.3956H37.3331V60.4013ZM35.8143 57.9544C35.9775 58.0219 36.3768 58.1175 37.3387 58.1175H37.4962C41.6756 58.1063 46.3331 58.095 50.5575 56.745C51.0412 56.5931 51.5418 56.4525 52.0481 56.3063C53.4037 55.9238 54.7931 55.53 55.8618 54.8663C56.1318 54.6975 56.3737 54.5119 56.6212 54.3263C56.8237 54.1688 57.0318 54.0113 57.2512 53.8594C57.4087 53.7469 57.5831 53.6513 57.7631 53.5613C57.8756 53.4994 58.0443 53.4094 58.0893 53.3644C58.4381 52.9819 58.41 52.1888 58.3875 51.4294C58.3818 51.1706 58.3762 50.9175 58.3762 50.6756C58.3987 49.3819 58.2131 48.51 57.7687 47.8519L57.5887 47.5763C57.1668 46.9463 56.7337 46.2938 56.2331 45.855C55.4512 45.1688 54.7762 44.7356 54.1181 44.4994C52.7512 44.0044 50.4225 43.9481 48.8193 44.3588C47.8575 44.6006 47.3118 45.1519 46.4906 45.9844L46.3106 46.1588C45.675 46.7944 44.8087 47.0531 44.1112 47.2556L43.7287 47.3738C42.9693 47.6213 42.2775 47.8406 41.6756 48.1163C39.5887 49.0556 38.34 50.94 37.6706 52.3631C37.3781 52.9706 37.1812 53.6231 36.9787 54.3094C36.855 54.72 36.7312 55.1306 36.5906 55.5413C36.5062 55.7831 36.405 56.0194 36.3093 56.25L36.2475 56.3963C35.9268 57.0488 35.7468 57.5044 35.8143 57.9544Z" fill="#FCC21B"/>
</g>
</g>
</g>
</g>
</svg>
