<svg width="32" height="32" viewBox="0 0 32 32" fill="none" xmlns="http://www.w3.org/2000/svg">
<g id="fluent-emoji-high-contrast:fork-and-knife">
<path id="Vector" d="M13.67 1.99999C13.14 1.99999 12.72 2.41999 12.72 2.93999V6.63999C12.72 6.76995 12.6684 6.89458 12.5765 6.98647C12.4846 7.07837 12.36 7.12999 12.23 7.12999C12.1 7.12999 11.9754 7.07837 11.8835 6.98647C11.7916 6.89458 11.74 6.76995 11.74 6.63999V2.97999C11.74 2.45999 11.34 2.00999 10.83 1.99999C10.7041 1.99597 10.5786 2.01731 10.4611 2.06275C10.3435 2.10818 10.2363 2.17678 10.1458 2.26447C10.0554 2.35217 9.98342 2.45715 9.93432 2.5732C9.88521 2.68925 9.85994 2.81398 9.86001 2.93999V6.63999C9.86001 6.76995 9.80838 6.89458 9.71649 6.98647C9.6246 7.07837 9.49996 7.12999 9.37001 7.12999C9.24005 7.12999 9.11542 7.07837 9.02352 6.98647C8.93163 6.89458 8.88001 6.76995 8.88001 6.63999V2.97999C8.88001 2.45999 8.48001 2.00999 7.97001 1.99999C7.84406 1.99597 7.7186 2.01731 7.60106 2.06275C7.48353 2.10818 7.37634 2.17678 7.28585 2.26447C7.19536 2.35217 7.12342 2.45715 7.07432 2.5732C7.02521 2.68925 6.99994 2.81398 7.00001 2.93999V9.25999C6.99895 9.84748 7.13413 10.4272 7.39492 10.9536C7.6557 11.4801 8.035 11.9389 8.50301 12.294C9.35001 12.914 9.35001 14.911 9.35001 14.911V28.711C9.35001 29.421 9.93001 30.001 10.64 30.001H10.96C11.67 30.001 12.25 29.421 12.25 28.711V14.9C12.25 14.9 12.25 12.863 13.084 12.293C13.5555 11.9384 13.9379 11.4789 14.2011 10.9509C14.4642 10.4229 14.6008 9.84092 14.6 9.25099V2.93999C14.6021 2.8168 14.5796 2.69443 14.5338 2.58008C14.4879 2.46572 14.4196 2.36169 14.333 2.27411C14.2463 2.18652 14.143 2.11715 14.0292 2.07008C13.9153 2.023 13.7932 1.99917 13.67 1.99999ZM23.06 1.99999C24.3 1.99999 25.3 2.99999 25.3 4.23999V17.89L25.29 17.887V28.701C25.29 29.411 24.71 29.991 24 29.991H23.68C22.97 29.991 22.39 29.411 22.39 28.701V16.837C21.6288 16.4909 20.9835 15.9327 20.5312 15.2293C20.079 14.526 19.839 13.7072 19.84 12.871V5.21999C19.83 3.43999 21.28 1.99999 23.06 1.99999Z" fill="#ED6C30"/>
</g>
</svg>
