<svg width="32" height="32" viewBox="0 0 32 32" fill="none" xmlns="http://www.w3.org/2000/svg">
<g id="mingcute:teacup-fill" clip-path="url(#clip0_1_71)">
<g id="Group">
<path id="Vector" d="M22.6667 5.33331C23.3739 5.33331 24.0522 5.61426 24.5523 6.11436C25.0524 6.61446 25.3333 7.29274 25.3333 7.99998V10.7133C26.5028 10.8799 27.5656 11.4839 28.3073 12.4033C29.0489 13.3227 29.4144 14.4892 29.3298 15.6675C29.2452 16.8457 28.7169 17.9481 27.8515 18.7521C26.9861 19.5562 25.848 20.0021 24.6667 20H23.616C22.5633 21.6833 21.0887 23.0623 19.3387 24H22.6667C23.0203 24 23.3594 24.1405 23.6095 24.3905C23.8595 24.6406 24 24.9797 24 25.3333C24 25.6869 23.8595 26.0261 23.6095 26.2761C23.3594 26.5262 23.0203 26.6666 22.6667 26.6666H5.33334C4.97972 26.6666 4.64058 26.5262 4.39053 26.2761C4.14048 26.0261 4.00001 25.6869 4.00001 25.3333C4.00001 24.9797 4.14048 24.6406 4.39053 24.3905C4.64058 24.1405 4.97972 24 5.33334 24H8.66134C6.8498 23.0327 5.33515 21.5914 4.27928 19.8301C3.22341 18.0687 2.66601 16.0536 2.66667 14V7.99998C2.66667 7.29274 2.94762 6.61446 3.44772 6.11436C3.94782 5.61426 4.6261 5.33331 5.33334 5.33331H22.6667ZM25.3333 13.4466V14C25.3333 15.1573 25.16 16.2746 24.8373 17.3266C25.277 17.2893 25.692 17.1077 26.0176 16.81C26.3433 16.5123 26.5614 16.1153 26.6379 15.6807C26.7145 15.2462 26.6452 14.7985 26.4408 14.4075C26.2364 14.0164 25.9085 13.7039 25.508 13.5186L25.3333 13.4466Z" fill="#ED6C30"/>
</g>
</g>
<defs>
<clipPath id="clip0_1_71">
<rect width="32" height="32" fill="white"/>
</clipPath>
</defs>
</svg>
